<svg xmlns="http://www.w3.org/2000/svg" version="1.1" xmlns:xlink="http://www.w3.org/1999/xlink" width="512" height="512" x="0" y="0" viewBox="0 0 24 24" style="enable-background:new 0 0 512 512" xml:space="preserve" class=""><g><g data-name="Layer 2"><path d="M10.73 12.163a2.004 2.004 0 0 0 2.54 0l8.784-7.216A3.975 3.975 0 0 0 19 3.5H5a3.975 3.975 0 0 0-3.054 1.447z" fill="#ffffff" opacity="1" data-original="#000000" class=""></path><path d="M14.54 13.709a4.012 4.012 0 0 1-5.08 0L1.07 6.816A3.953 3.953 0 0 0 1 7.5v9a4.004 4.004 0 0 0 4 4h14a4.004 4.004 0 0 0 4-4v-9a3.953 3.953 0 0 0-.07-.684z" fill="#ffffff" opacity="1" data-original="#000000" class=""></path></g></g></svg>