<?xml version="1.0" encoding="utf-8"?>
<!-- Generator: Adobe Illustrator 23.0.3, SVG Export Plug-In . SVG Version: 6.00 Build 0)  -->
<svg version="1.1" id="Warstwa_1" xmlns="http://www.w3.org/2000/svg" xmlns:xlink="http://www.w3.org/1999/xlink" x="0px" y="0px"
	 viewBox="0 0 481.3 126.7" style="enable-background:new 0 0 481.3 126.7;" xml:space="preserve">
<style type="text/css">
	.st0{clip-path:url(#SVGID_2_);}
	.st1{fill:#000000;}
	.st2{clip-path:url(#SVGID_4_);}
</style>
<g transform="matrix(1, 0, 0, 1, 7, 143)">
	<g>
		<defs>
			<rect id="SVGID_1_" x="-7" y="-143" width="481.3" height="126.7"/>
		</defs>
		<clipPath id="SVGID_2_">
			<use xlink:href="#SVGID_1_"  style="overflow:visible;"/>
		</clipPath>
		<g class="st0">
			<g>
				<g transform="translate(1.112605, 67.612178)">
					<g>
						<path class="st1" d="M4.2-120.5v-46.9h8.9v39.9h36.5v7.1H4.2z"/>
					</g>
				</g>
			</g>
			<g>
				<g transform="translate(38.513663, 67.612178)">
					<g>
						<path class="st1" d="M25.6-167.4v39.9h34.3v-39.9h9v35.9c0,4.3-0.8,7.3-2.4,8.8c-1.6,1.5-4.6,2.3-9.1,2.3H28.2
							c-4.5,0-7.5-0.8-9.1-2.3c-1.6-1.6-2.4-4.5-2.4-8.8v-35.9H25.6z"/>
					</g>
				</g>
			</g>
			<g>
				<g transform="translate(86.868406, 67.612178)">
					<g>
						<path class="st1" d="M41.7-141.6v14.3h27.2c2,0,3.4-0.4,4.2-1.1c0.8-0.8,1.2-2.2,1.2-4.1v-3.7c0-1.9-0.4-3.3-1.2-4.1
							c-0.8-0.8-2.2-1.2-4.2-1.2H41.7z M73.9-152.3v-4.4c0-1.4-0.4-2.4-1.1-3c-0.7-0.6-2-0.9-4-0.9H41.7v12.1h27.2
							c2.1,0,3.4-0.3,4.1-0.8C73.6-149.8,73.9-150.8,73.9-152.3z M32.8-120.5v-46.9h39.6c3.6,0,6.2,0.7,7.8,2.2
							c1.6,1.5,2.4,3.8,2.4,7v5.4c0,2.5-0.7,4.4-2,5.7c-1.3,1.3-3.4,2.1-6.2,2.4c2.8,0.3,4.9,1.2,6.3,2.8c1.4,1.6,2.2,3.7,2.2,6.3v6
							c0,3.1-1.1,5.4-3.4,6.9c-2.2,1.5-5.6,2.3-10.2,2.3H32.8z"/>
					</g>
				</g>
			</g>
			<g>
				<g transform="translate(132.302166, 67.612178)">
					<g>
						<path class="st1" d="M51.9-120.5v-57.2H107v7.7H61.5v15.9h27.8v7.6H61.5v18.2h45.9v7.8H51.9z"/>
					</g>
				</g>
			</g>
			<g>
				<g transform="translate(183.902445, 67.612178)">
					<g>
						<path class="st1" d="M83.8-120.5l-27-46.9h9.5l21,37.8l20.2-37.8h8.8l-25.7,46.9H83.8z"/>
					</g>
				</g>
			</g>
			<g>
				<g transform="translate(225.117008, 67.612178)">
					<g>
						<path class="st1" d="M78.9-120.5v-46.9h47.3v7H87.8v12.1h23.1v7H87.8v14.1h38.8v6.9H78.9z"/>
					</g>
				</g>
			</g>
			<g>
				<g transform="translate(266.331572, 67.612178)">
					<g>
						<path class="st1" d="M100.2-158c0.2,1.4,0.4,2.8,0.5,4.2c0.1,1.4,0.2,2.8,0.2,4.2v29.1h-8.2v-46.9h6.8l34.5,30.7
							c1,0.9,2,1.8,2.9,2.9c0.9,1,1.8,2.2,2.7,3.6c-0.3-1.4-0.4-2.8-0.6-4.3c-0.1-1.4-0.2-2.9-0.2-4.5v-28.3h8.2v46.9h-6.1
							l-35.1-31.1c-1.2-1.2-2.3-2.2-3.2-3.3C101.6-155.9,100.9-156.9,100.2-158z"/>
					</g>
				</g>
			</g>
			<g>
				<g transform="translate(316.268498, 67.612178)">
					<g>
						<path class="st1" d="M131.8-160.4v40H123v-40h-22.2v-7h53.3v7H131.8z"/>
					</g>
				</g>
			</g>
			<g>
				<defs>
					<rect id="SVGID_3_" x="180.5" y="-33.7" width="292.5" height="16.4"/>
				</defs>
				<clipPath id="SVGID_4_">
					<use xlink:href="#SVGID_3_"  style="overflow:visible;"/>
				</clipPath>
				<g class="st2">
					<path class="st1" d="M468.6-32.7c-37.3-1-74.6-0.9-111.8,0.1c-37.4,1.1-74.8,3.2-112.2,6.2c-10.4,0.9-20.7,2-31,3.1
						c-5.1,0.6-10.2,1.3-15.4,2c-5.7,0.8-11.3,1.5-16.9,2.7c-0.4,0.1-0.9,0.8-0.3,0.9c9.4,0.1,18.9-1,28.4-1.6
						c9.5-0.6,19.1-1.3,28.6-2.1c18.8-1.5,37.7-2.7,56.6-3.7c37.4-1.9,74.9-2.7,112.3-2.6c21.1,0.1,42.1,0.6,63.2,1.3
						C473.3-26.1,471.4-32.6,468.6-32.7"/>
				</g>
			</g>
		</g>
	</g>
</g>
</svg>
